#!OML:ASF X:\für Bonn\!DataBase\2005_08_12_Daniel\c3d\Daniel.ASF
:FULLY-SPECIFIED
:DEGREES
329
root 16.1492 1.27949 1.13915 -788.124 -85.7424 -414.725
lowerback 38.7026 -4.28658 1.49058
upperback 10.744 -6.5786 -1.85575
thorax -7.21272 -3.89563 -0.0849969
lowerneck 5.61299 3.77448 -3.41231
upperneck 9.11054 4.88153 -2.21044
head 1.87857 2.18916 -0.129725
rclavicle -2.38542e-014 1.49486e-013
rhumerus -29.63 9.83402 -94.7991
rradius 32.7076
rwrist -16.7268
rhand -27.8248 -357.923
rfingers 7.12502
rthumb -1.21671 -387.899
lclavicle -2.38542e-014 1.49486e-013
lhumerus -749.012 30.7763 -650.262
lradius 22.6697
lwrist -44.2748
lhand -16.4186 352.24
lfingers 7.12502
lthumb 9.79626 381.992
rfemur 358.497 -6.73178 372.758
rtibia 77.282
rfoot 17.1921 -2.63319
rtoes 11.5089
lfemur -10.1452 2.14563 -6.06136
ltibia 87.5903
lfoot 24.9121 -0.153256
ltoes 3.42079
330
root 16.1573 1.27859 1.14054 -787.747 -85.7424 -415.201
lowerback 38.7403 -4.28344 1.45882
upperback 10.5425 -6.56194 -1.80797
thorax -7.43993 -3.8722 -0.0103015
lowerneck 5.4097 3.76488 -3.44252
upperneck 8.51078 4.87332 -2.15358
head 1.71642 2.20797 -0.108953
rclavicle 3.18055e-015 -1.59028e-014
rhumerus -30.36 10.8751 -94.8645
rradius 33.5856
rwrist -17.4202
rhand -27.9443 -358.573
rfingers 7.12502
rthumb -1.33214 -388.548
lclavicle 3.18055e-015 -1.59028e-014
lhumerus -749.446 30.8332 -650.38
lradius 23.0728
lwrist -43.9176
lhand -16.112 352.227
lfingers 7.12502
lthumb 10.0921 381.965
rfemur 358.61 -6.91258 372.577
rtibia 77.3615
rfoot 16.9727 -2.65352
rtoes 11.8376
lfemur -9.99014 2.2489 -5.96447
ltibia 87.501
lfoot 25.195 -0.378903
ltoes 3.25235
331
root 16.1645 1.27813 1.1409 -787.55 -85.7338 -415.491
lowerback 38.7629 -4.26503 1.41256
upperback 10.3652 -6.53323 -1.76219
thorax -7.63446 -3.84449 0.0622701
lowerneck 5.14919 3.7561 -3.50762
upperneck 7.99927 4.86746 -2.07279
head 1.5921 2.22325 -0.0733983
rclavicle 6.52014e-014 -6.48038e-014
rhumerus -31.0259 11.7905 -94.88
rradius 34.358
rwrist -17.9108
rhand -27.9141 -358.972
rfingers 7.12502
rthumb -1.30299 -388.947
lclavicle 6.52014e-014 -6.48038e-014
lhumerus -749.794 30.9509 -650.506
lradius 23.4059
lwrist -43.6558
lhand -15.8842 352.216
lfingers 7.12502
lthumb 10.3118 381.943
rfemur 358.734 -7.12472 372.361
rtibia 77.4
rfoot 16.8376 -2.6908
rtoes 12.2956
lfemur -9.82679 2.36884 -5.87687
ltibia 87.3849
lfoot 25.5563 -0.665396
ltoes 3.31173
332
root 16.1701 1.27712 1.14224 -787.07 -85.7428 -416.06
lowerback 38.7937 -4.25585 1.40563
upperback 10.1983 -6.50171 -1.71338
thorax -7.82299 -3.81604 0.116637
lowerneck 4.88882 3.74068 -3.54813
upperneck 7.50404 4.854 -2.00689
head 1.47491 2.23386 -0.0465223
rclavicle -1.59028e-015 5.96354e-015
rhumerus -31.5153 12.6188 -94.8507
rradius 34.8469
rwrist -18.2158
rhand -27.764 -359.107
rfingers 7.12502
rthumb -1.15793 -389.084
lclavicle -1.59028e-015 5.96354e-015
lhumerus -750.11 30.9658 -650.585
lradius 23.7365
lwrist -43.2677
lhand -15.7294 352.15
lfingers 7.12502
lthumb 10.4612 381.87
rfemur 358.884 -7.3802 372.14
rtibia 77.3762
rfoot 16.8474 -2.73018
rtoes 13.0084
lfemur -9.6778 2.49039 -5.76605
ltibia 87.2625
lfoot 25.9158 -1.01448
ltoes 3.52037
333
root 16.177 1.27651 1.14233 -786.832 -85.7411 -416.368
lowerback 38.816 -4.22723 1.37189
upperback 10.036 -6.45513 -1.65939
thorax -8.0008 -3.78061 0.183082
lowerneck 4.61606 3.72689 -3.59671
upperneck 7.06729 4.84345 -1.94451
head 1.37904 2.24293 -0.0187506
rclavicle 3.02153e-014 -2.8625e-014
rhumerus -31.8091 13.3881 -94.8013
rradius 34.9924
rwrist -18.3489
rhand -27.5434 -358.944
rfingers 7.12502
rthumb -0.94491 -388.921
lclavicle 3.02153e-014 -2.8625e-014
lhumerus -750.419 30.8301 -650.6
lradius 24.0946
lwrist -42.795
lhand -15.6688 352.092
lfingers 7.12502
lthumb 10.5197 381.809
rfemur 359.05 -7.6093 371.912
rtibia 77.3027
rfoot 16.8864 -2.8302
rtoes 13.6898
lfemur -9.53132 2.62854 -5.67743
ltibia 87.1047
lfoot 26.3588 -1.37647
ltoes 3.97137
334
root 16.1849 1.27704 1.14227 -786.692 -85.7302 -416.58
lowerback 38.8318 -4.20122 1.33697
upperback 9.89055 -6.41571 -1.62404
thorax -8.16048 -3.74948 0.231908
lowerneck 4.26778 3.7171 -3.64045
upperneck 6.76513 4.84447 -1.87072
head 1.33855 2.25332 0.0147364
rclavicle -7.79236e-014 2.92213e-014
rhumerus -32.0163 14.0305 -94.7156
rradius 35.0308
rwrist -18.1809
rhand -27.1856 -358.459
rfingers 7.12502
rthumb -0.599374 -388.438
lclavicle -7.79236e-014 2.92213e-014
lhumerus -750.756 30.6584 -650.621
lradius 24.5095
lwrist -42.3551
lhand -15.701 352.082
lfingers 7.12502
lthumb 10.4886 381.801
rfemur 359.244 -7.79969 371.691
rtibia 77.1816
rfoot 16.9747 -3.00876
rtoes 14.2422
lfemur -9.36408 2.76017 -5.61662
ltibia 86.9149
lfoot 26.7819 -1.79723
ltoes 4.2411
335
root 16.192 1.27714 1.14216 -786.496 -85.7202 -416.853
lowerback 38.8529 -4.17438 1.31699
upperback 9.76143 -6.37071 -1.58891
thorax -8.30489 -3.71687 0.269831
lowerneck 3.91507 3.70699 -3.65457
upperneck 6.48156 4.84705 -1.81973
head 1.30619 2.26387 0.0367348
rclavicle -2.06736e-014 5.04913e-014
rhumerus -32.1633 14.4665 -94.5593
rradius 35.0345
rwrist -17.7186
rhand -26.6988 -357.765
rfingers 7.12502
rthumb -0.129186 -387.744
lclavicle -2.06736e-014 5.04913e-014
lhumerus -751.032 30.3841 -650.594
lradius 24.8886
lwrist -41.881
lhand -15.8697 352.051
lfingers 7.12502
lthumb 10.3259 381.778
rfemur 359.46 -7.97451 371.496
rtibia 77.0348
rfoot 17.0788 -3.2001
rtoes 14.5304
lfemur -9.19661 2.90788 -5.55732
ltibia 86.7118
lfoot 27.2277 -2.29333
ltoes 4.3017
